<?xml version="1.0" standalone="no"?>
<!DOCTYPE svg PUBLIC "-//W3C//DTD SVG 20010904//EN"
 "http://www.w3.org/TR/2001/REC-SVG-20010904/DTD/svg10.dtd">
<svg version="1.0" xmlns="http://www.w3.org/2000/svg"
 width="900.000000pt" height="921.000000pt" viewBox="0 0 900.000000 921.000000"
 preserveAspectRatio="xMidYMid meet">
<metadata>
Created by potrace 1.10, written by Peter Selinger 2001-2011
</metadata>
<g transform="translate(0.000000,921.000000) scale(0.100000,-0.100000)"
fill="#000000" stroke="none">
<path d="M4021 8428 c-41 -5 -90 -16 -109 -24 -19 -8 -41 -14 -48 -14 -25 0
-148 -63 -221 -113 -124 -85 -225 -203 -292 -342 -56 -116 -77 -176 -101 -295
-43 -206 -8 -483 105 -847 39 -124 61 -190 85 -253 12 -30 25 -67 30 -81 4
-14 12 -34 18 -45 5 -10 18 -39 27 -64 9 -25 23 -58 31 -73 8 -16 14 -36 14
-46 0 -9 6 -25 13 -36 7 -11 28 -56 47 -100 18 -44 46 -108 61 -143 16 -34 29
-67 29 -73 0 -6 6 -23 14 -37 8 -15 28 -67 46 -117 17 -49 37 -103 44 -120 7
-16 23 -67 36 -112 l24 -83 -23 -24 c-44 -47 2 -106 94 -120 22 -3 60 -10 85
-15 101 -22 304 -7 398 30 34 13 46 54 27 92 -21 42 -20 47 29 187 67 190 68
193 82 222 8 14 14 31 14 38 0 7 6 26 14 43 7 18 23 57 35 87 12 30 26 64 30
75 17 41 73 181 86 215 46 122 60 156 67 164 4 6 8 19 8 31 0 12 4 25 9 31 10
10 50 122 108 299 19 61 42 125 49 143 8 18 14 45 14 60 0 15 6 47 14 72 40
125 49 203 49 400 -1 198 -7 242 -54 380 -61 181 -202 365 -356 467 -87 57
-97 63 -113 69 -8 3 -28 11 -45 18 -134 58 -296 76 -474 54z m204 -166 c37
-26 122 -198 160 -322 9 -30 21 -68 26 -85 18 -58 49 -340 49 -450 0 -60 -5
-155 -11 -210 -5 -55 -14 -152 -19 -215 -4 -63 -13 -131 -19 -150 -6 -19 -11
-55 -11 -80 0 -25 -5 -62 -11 -83 -5 -20 -14 -70 -19 -110 -10 -78 -34 -232
-49 -312 -5 -27 -17 -95 -27 -150 -9 -55 -22 -133 -30 -174 -8 -40 -14 -93
-14 -116 0 -53 -17 -102 -30 -89 -6 6 -11 507 -15 1247 -3 681 -8 1249 -11
1262 -9 36 7 55 31 37z m-125 -19 c5 -470 -3 -2550 -10 -2562 -8 -13 -9 -14
-10 -1 -2 50 -77 509 -110 680 -6 30 -15 82 -20 115 -4 33 -18 121 -29 195
-12 74 -26 182 -31 239 -6 57 -12 107 -15 111 -3 4 -10 96 -15 205 -11 198 -2
440 19 537 6 24 15 68 22 98 28 131 74 249 132 338 41 61 67 79 67 45z m-160
-8 c0 -2 -11 -24 -24 -47 -49 -90 -104 -254 -131 -393 -53 -276 -30 -778 55
-1240 10 -54 36 -212 49 -310 5 -33 14 -80 19 -105 31 -133 48 -275 34 -284
-6 -3 -13 8 -17 26 -3 18 -12 49 -19 68 -15 37 -63 188 -89 280 -9 30 -30 100
-46 155 -16 55 -37 129 -46 165 -9 36 -22 88 -30 115 -7 28 -21 86 -30 130 -9
44 -21 96 -26 115 -34 127 -64 365 -64 510 0 229 31 362 128 559 42 84 66 119
129 183 42 43 83 78 92 78 9 0 16 -2 16 -5z m498 -32 c63 -51 124 -133 178
-238 49 -95 63 -139 94 -275 30 -132 28 -390 -5 -580 -14 -80 -30 -170 -35
-200 -5 -30 -25 -118 -45 -195 -20 -77 -41 -156 -45 -175 -5 -19 -16 -57 -24
-85 -8 -27 -24 -84 -35 -125 -30 -103 -43 -149 -81 -265 -17 -55 -35 -116 -39
-136 -4 -20 -15 -47 -24 -60 -10 -13 -17 -32 -17 -43 0 -11 -3 -17 -6 -14 -6
6 7 107 31 238 8 41 16 98 20 125 3 28 10 70 15 95 36 177 90 529 115 750 22
194 17 667 -9 778 -38 165 -60 231 -117 349 -21 45 -39 84 -39 87 0 15 27 3
68 -31z m-747 -56 c-99 -132 -160 -284 -201 -496 -34 -177 -20 -430 40 -716
11 -55 23 -113 26 -130 7 -40 88 -335 125 -455 16 -52 36 -120 45 -150 8 -30
20 -69 25 -86 5 -17 9 -41 9 -55 -1 -36 -26 16 -112 231 -16 41 -42 104 -58
140 -62 144 -144 378 -175 500 -98 389 -107 559 -41 804 23 85 97 230 158 311
53 70 172 170 189 160 5 -4 -9 -29 -30 -58z m975 12 c141 -112 242 -290 290
-513 13 -63 15 -111 11 -245 -3 -91 -10 -182 -15 -201 -6 -19 -18 -73 -27
-120 -16 -79 -27 -119 -60 -225 -7 -22 -23 -74 -35 -115 -13 -41 -27 -79 -32
-85 -4 -5 -8 -17 -8 -26 0 -14 -8 -36 -50 -134 -5 -11 -29 -74 -55 -140 -68
-176 -78 -198 -91 -215 -6 -8 -15 -30 -19 -48 -4 -18 -11 -30 -16 -26 -13 8
-11 31 5 67 8 18 17 46 19 62 3 17 15 62 26 100 11 39 35 122 52 185 17 63 38
140 46 170 31 115 80 342 88 410 3 30 8 57 11 62 3 4 12 76 20 159 12 133 12
167 -1 288 -22 200 -48 293 -122 438 -24 48 -62 111 -84 140 -21 29 -39 55
-39 58 0 15 29 0 86 -46z"/>
<path d="M2996 5459 c-200 -15 -352 -76 -468 -191 -95 -93 -150 -185 -198
-332 l-33 -99 -1 -1271 c-1 -1176 -3 -1278 -19 -1366 -10 -52 -22 -99 -28
-105 -5 -5 -9 -16 -9 -25 0 -27 -44 -99 -65 -104 -11 -3 -146 -6 -300 -6 -227
-1 -284 -3 -299 -15 -28 -21 -31 -95 -8 -200 26 -117 37 -146 90 -227 51 -79
109 -133 189 -175 126 -67 21 -63 1802 -63 1439 0 1619 2 1679 16 101 24 169
56 254 121 133 101 222 250 272 455 14 60 16 203 16 1423 0 916 3 1363 10
1376 10 18 26 19 430 19 498 0 460 -10 460 120 0 324 -185 601 -427 640 -82
14 -1509 13 -1534 0 -29 -16 -25 -64 6 -78 19 -9 189 -12 614 -12 323 0 591
-3 594 -6 4 -4 -13 -24 -38 -46 -49 -43 -145 -183 -145 -211 0 -10 -5 -28 -11
-39 -6 -12 -20 -62 -31 -112 -18 -88 -19 -143 -19 -1496 1 -889 -3 -1427 -9
-1465 -23 -137 -30 -166 -55 -230 -47 -117 -119 -208 -230 -292 -22 -16 -49
-33 -60 -36 -11 -3 -40 -13 -65 -22 -172 -63 -322 29 -397 245 -10 27 -18 98
-22 175 l-6 130 -1307 5 c-718 3 -1309 8 -1312 11 -4 3 3 28 14 55 12 27 30
91 41 143 18 89 19 148 19 1346 0 1087 2 1263 15 1322 18 77 33 120 78 213 43
88 162 206 248 247 127 60 149 63 465 63 246 0 293 2 312 16 29 20 29 60 0 75
-28 15 -340 20 -512 8z"/>
<path d="M3927 5173 c-4 -3 -7 -78 -7 -166 0 -171 -11 -245 -57 -377 -44 -127
-45 -121 34 -203 84 -87 167 -224 207 -340 3 -10 10 -15 16 -12 6 4 10 84 10
209 0 162 -3 206 -15 222 -20 26 -19 58 3 77 26 23 58 21 76 -5 21 -30 20 -44
-4 -78 -19 -27 -20 -42 -18 -217 3 -217 12 -234 61 -118 40 97 123 219 196
288 62 60 70 74 49 95 -16 16 -35 69 -68 190 -6 20 -13 125 -17 234 l-6 196
-191 -1 c-105 -1 -207 1 -227 6 -19 4 -38 4 -42 0z"/>
<path d="M4200 3970 c-30 -11 -67 -19 -81 -19 -39 -1 -41 -11 -9 -41 l30 -28
0 -279 c0 -227 -3 -283 -15 -307 -8 -15 -15 -32 -15 -37 0 -5 49 -9 109 -9
114 0 136 9 100 40 -25 21 -35 128 -15 155 10 13 18 17 24 10 21 -22 73 -127
80 -162 l8 -38 117 -3 c129 -3 143 5 87 46 -37 28 -169 240 -170 273 0 20 64
79 131 121 34 20 47 33 38 38 -16 11 -207 12 -213 2 -3 -5 4 -21 15 -38 10
-16 19 -36 19 -44 0 -22 -100 -120 -122 -120 -10 0 -18 6 -18 13 -1 6 0 105 0
219 1 196 0 207 -19 217 -11 6 -21 11 -23 10 -2 -1 -28 -9 -58 -19z"/>
<path d="M2913 3963 c-29 -2 -53 -9 -53 -15 0 -5 14 -23 30 -38 l30 -28 0
-281 c0 -268 -1 -282 -20 -301 -11 -11 -27 -20 -36 -20 -9 0 -14 -7 -12 -17 3
-16 20 -18 163 -21 223 -4 345 10 399 46 108 72 104 224 -8 301 -25 17 -49 31
-55 31 -26 0 -18 21 17 40 52 29 82 76 82 128 0 136 -95 184 -355 180 -71 -1
-154 -3 -182 -5z m319 -70 c25 -24 28 -33 28 -95 0 -77 -15 -110 -61 -134 -34
-17 -81 -18 -97 -2 -17 17 -17 229 0 246 7 7 32 12 57 12 35 0 51 -6 73 -27z
m-9 -299 c42 -20 63 -54 71 -119 10 -68 -7 -135 -39 -162 -20 -18 -39 -23 -80
-23 -78 0 -85 14 -85 163 0 65 5 127 10 138 13 24 75 26 123 3z"/>
<path d="M3715 3741 c-152 -28 -205 -184 -64 -184 54 0 73 23 65 76 -9 55 6
77 54 77 46 0 64 -21 75 -87 8 -54 -15 -93 -55 -93 -52 0 -155 -39 -193 -72
-30 -26 -39 -42 -43 -78 -8 -63 7 -95 58 -121 60 -31 113 -30 177 3 l53 28 25
-20 c34 -27 84 -34 130 -20 49 16 86 60 50 60 -7 0 -22 6 -33 14 -17 13 -20
31 -24 173 -6 173 -12 192 -73 227 -33 19 -144 28 -202 17z m120 -329 c0 -61
-3 -76 -19 -88 -65 -47 -136 40 -96 117 13 23 66 49 95 46 18 -2 20 -9 20 -75z"/>
<path d="M4865 3741 c-192 -34 -263 -293 -120 -437 98 -98 287 -90 361 17 21
31 25 42 15 52 -10 9 -15 9 -24 -4 -25 -32 -67 -51 -116 -51 -79 0 -130 52
-134 135 l-2 42 138 5 c153 6 162 9 152 70 -10 62 -48 123 -91 147 -45 24
-120 34 -179 24z m81 -39 c33 -21 46 -113 22 -144 -17 -20 -93 -32 -118 -18
-23 12 -25 41 -9 91 21 63 69 95 105 71z"/>
<path d="M4335 3160 c-3 -5 -3 -15 0 -20 15 -24 -6 -47 -46 -53 -50 -7 -66
-20 -81 -68 -16 -56 2 -112 43 -129 24 -10 35 -10 53 0 18 9 29 9 44 1 11 -6
31 -11 45 -11 l24 0 -4 133 c-3 72 -6 138 -8 145 -5 14 -61 16 -70 2z m-7
-112 c14 -14 16 -96 3 -116 -5 -8 -17 -12 -27 -10 -15 2 -20 14 -22 56 -4 68
17 99 46 70z"/>
<path d="M3784 3090 c-17 -4 -36 -10 -42 -14 -18 -11 -14 -53 4 -60 21 -8 44
11 44 35 0 25 16 24 30 -1 8 -15 6 -24 -10 -40 -11 -11 -28 -20 -38 -20 -24 0
-62 -41 -62 -66 0 -11 5 -25 12 -32 14 -14 74 -16 82 -3 4 5 18 5 35 -2 46
-17 65 -4 57 41 -3 20 -6 57 -6 82 0 25 -4 51 -8 58 -12 18 -62 30 -98 22z
m46 -144 c0 -8 -5 -18 -10 -21 -13 -8 -42 14 -34 26 9 15 44 10 44 -5z"/>
<path d="M3961 3086 c-11 -14 -14 -150 -4 -188 5 -22 55 -25 71 -5 7 8 9 29 5
50 -3 20 -2 52 1 72 6 30 11 36 29 33 21 -3 22 -8 22 -83 l0 -80 35 0 35 0 3
83 c3 76 1 84 -22 107 -26 26 -60 33 -71 15 -3 -5 -17 -10 -30 -10 -13 0 -27
5 -30 10 -9 14 -31 12 -44 -4z"/>
<path d="M4613 2963 c-34 -7 -65 -52 -58 -83 14 -55 67 -84 120 -64 19 8 45
55 45 82 0 44 -53 76 -107 65z"/>
<path d="M2823 2933 c-4 -10 -1 -19 6 -21 8 -3 21 -12 31 -22 15 -15 18 -51
24 -282 6 -226 5 -271 -8 -302 -10 -24 -21 -36 -35 -36 -25 0 -38 -20 -20 -31
7 -4 122 -7 254 -6 225 3 243 4 282 25 45 23 74 58 91 111 27 78 -1 155 -74
201 -27 16 -56 30 -65 30 -37 0 -28 20 18 44 70 37 88 67 87 145 0 63 -2 66
-41 101 -58 51 -109 60 -344 60 -178 0 -200 -2 -206 -17z m378 -62 c26 -27 29
-35 29 -99 0 -55 -4 -75 -21 -95 -27 -35 -90 -54 -124 -39 -25 11 -25 13 -25
131 0 132 -2 129 68 130 35 1 49 -5 73 -28z m-11 -296 c52 -27 70 -64 70 -147
0 -107 -39 -157 -122 -158 -54 0 -75 27 -84 107 -7 68 -1 183 10 202 10 16 92
13 126 -4z"/>
<path d="M4657 2734 c-3 -3 -38 -9 -79 -12 -57 -6 -73 -11 -76 -24 -2 -10 5
-19 18 -23 12 -4 25 -18 31 -32 10 -26 12 -304 3 -340 -4 -13 -19 -26 -38 -33
-30 -11 -30 -12 -12 -26 23 -16 231 -20 256 -4 13 8 10 14 -15 34 l-30 24 -3
209 c-3 121 -8 213 -14 221 -11 13 -31 16 -41 6z"/>
<path d="M5127 2725 c-22 -7 -49 -23 -62 -35 l-23 -22 -13 24 c-6 12 -16 26
-22 29 -14 10 -180 -2 -192 -13 -7 -6 2 -19 24 -37 l33 -27 5 -150 c5 -122 3
-156 -10 -186 -9 -21 -23 -38 -31 -38 -21 0 -31 -21 -15 -31 14 -8 249 -2 259
7 3 3 -7 15 -23 26 l-27 20 0 145 c0 130 2 149 21 179 22 36 54 50 94 40 35
-9 45 -57 45 -219 0 -137 0 -138 -27 -163 -21 -20 -24 -27 -14 -34 11 -6 148
-7 249 -1 21 2 13 19 -15 33 l-28 13 -6 170 c-4 94 -10 181 -14 195 -10 32
-37 58 -80 76 -42 17 -78 17 -128 -1z"/>
<path d="M3810 2723 c-8 -3 -30 -19 -47 -36 -34 -32 -48 -30 -48 6 0 21 -5 22
-94 25 -109 3 -127 -6 -88 -42 l27 -25 0 -180 0 -179 -27 -21 c-24 -17 -26
-22 -13 -30 12 -8 183 -9 278 -2 24 2 11 21 -20 29 -53 13 -59 40 -50 193 8
121 10 134 32 151 23 19 23 19 55 -12 53 -51 113 -36 130 33 17 66 -60 117
-135 90z"/>
<path d="M4115 2721 c-51 -9 -101 -36 -115 -60 -5 -11 -10 -33 -10 -50 0 -52
74 -90 120 -61 10 6 17 32 20 72 l5 63 36 3 c30 3 41 -2 58 -24 42 -54 21
-154 -33 -154 -50 0 -148 -35 -183 -65 -37 -32 -38 -35 -38 -99 0 -78 15 -98
88 -118 53 -14 127 0 159 29 15 14 20 13 51 -6 38 -23 133 -29 168 -11 24 14
25 50 1 50 -38 0 -42 19 -42 187 l0 163 -32 36 c-47 50 -133 65 -253 45z m133
-308 c4 -74 -16 -113 -56 -113 -40 0 -62 27 -62 76 0 36 5 47 36 74 22 19 44
30 57 28 19 -3 22 -10 25 -65z"/>
</g>
</svg>
