<?xml version="1.0" standalone="no"?>
<!DOCTYPE svg PUBLIC "-//W3C//DTD SVG 20010904//EN"
 "http://www.w3.org/TR/2001/REC-SVG-20010904/DTD/svg10.dtd">
<svg version="1.0" xmlns="http://www.w3.org/2000/svg"
 width="900.000000pt" height="1221.000000pt" viewBox="0 0 900.000000 1221.000000"
 preserveAspectRatio="xMidYMid meet">
<metadata>
Created by potrace 1.10, written by Peter Selinger 2001-2011
</metadata>
<g transform="translate(0.000000,1221.000000) scale(0.100000,-0.100000)"
fill="#000000" stroke="none">
<path d="M4005 11069 c-22 -4 -61 -8 -87 -8 -54 -1 -168 -27 -283 -65 -44 -14
-88 -26 -98 -26 -10 0 -31 -6 -45 -14 -15 -8 -61 -31 -102 -51 -434 -212 -730
-502 -937 -918 -70 -141 -83 -169 -106 -232 -8 -22 -21 -58 -30 -80 -51 -139
-100 -358 -117 -525 -34 -340 16 -775 146 -1272 33 -124 47 -174 60 -213 8
-23 14 -48 14 -57 0 -10 6 -32 14 -50 8 -18 22 -60 31 -93 10 -33 23 -76 30
-95 20 -56 95 -282 105 -315 4 -16 18 -55 30 -85 12 -30 25 -66 30 -80 5 -14
18 -50 30 -80 12 -30 25 -66 29 -80 9 -28 53 -128 76 -173 8 -16 15 -34 15
-42 0 -13 38 -105 71 -168 10 -21 19 -50 19 -66 0 -16 21 -71 46 -122 25 -52
52 -109 60 -126 8 -18 22 -50 31 -70 9 -21 23 -54 31 -73 8 -19 21 -51 29 -70
28 -67 38 -90 101 -230 16 -36 32 -80 35 -98 4 -18 18 -56 31 -85 31 -67 79
-185 105 -262 11 -33 30 -85 41 -115 12 -30 25 -66 30 -80 5 -14 18 -50 30
-80 12 -30 28 -77 36 -105 8 -27 21 -72 30 -100 8 -27 19 -66 23 -85 4 -19 13
-45 19 -57 19 -35 14 -60 -18 -97 -17 -18 -36 -49 -44 -68 -13 -30 -13 -38 4
-74 32 -72 106 -112 255 -138 55 -10 125 -24 156 -32 80 -20 480 -19 608 2
182 30 282 62 318 103 29 34 32 133 6 171 -21 30 -23 163 -3 201 7 13 17 37
21 54 4 16 24 75 44 130 20 55 47 132 60 170 13 39 29 86 36 105 6 19 18 47
25 62 8 14 14 33 14 42 0 9 17 53 39 98 21 46 41 99 45 118 4 19 21 69 38 110
16 41 37 93 45 115 9 22 22 55 29 73 8 17 20 47 28 65 7 17 21 52 31 77 9 25
23 59 30 75 14 34 62 152 95 235 11 30 25 64 29 75 12 28 41 103 56 145 31 86
48 127 61 153 8 16 14 33 14 38 0 6 14 37 30 71 17 33 30 72 30 87 0 15 13 54
28 87 49 101 82 193 211 579 55 165 105 316 112 335 6 19 17 49 25 65 7 17 16
57 20 90 7 67 27 164 43 210 36 108 64 239 83 385 18 142 18 759 0 890 -20
146 -65 314 -118 438 -8 18 -14 37 -14 43 0 19 -103 225 -158 314 -111 181
-312 414 -447 520 -27 22 -52 42 -55 45 -7 8 -140 100 -145 100 -2 0 -32 19
-67 43 -79 52 -134 78 -293 139 -110 42 -249 74 -405 93 -123 16 -409 18 -475
4z m381 -395 c19 -19 50 -63 69 -97 19 -34 40 -69 45 -77 16 -26 69 -139 125
-265 13 -30 35 -86 60 -155 7 -19 21 -62 30 -95 10 -33 22 -71 27 -85 17 -43
41 -133 48 -185 4 -27 13 -88 20 -135 6 -47 18 -128 26 -180 8 -53 14 -119 14
-147 0 -28 7 -115 16 -194 23 -204 11 -525 -32 -885 -7 -67 -14 -148 -14 -180
0 -77 -27 -312 -45 -394 -7 -36 -17 -94 -20 -130 -10 -118 -26 -234 -40 -295
-8 -33 -21 -112 -30 -175 -9 -63 -22 -152 -30 -196 -8 -45 -15 -96 -15 -113 0
-17 -6 -63 -14 -103 -8 -40 -22 -118 -31 -173 -9 -55 -23 -128 -31 -162 -8
-34 -14 -76 -14 -93 0 -18 -7 -59 -15 -93 -8 -34 -21 -107 -30 -162 -17 -106
-37 -215 -54 -305 -6 -30 -18 -125 -26 -210 -16 -173 -27 -229 -47 -241 -21
-14 -27 -11 -32 14 -3 12 -8 380 -12 817 -4 437 -8 869 -9 960 -2 91 -6 827
-10 1635 -4 809 -10 1614 -15 1790 -8 289 -7 321 8 333 25 19 42 14 78 -24z
m-308 3 c20 -24 24 -990 12 -2832 -15 -2265 -22 -2784 -35 -2788 -5 -1 -11 12
-12 28 -4 43 -32 236 -48 330 -8 44 -16 100 -19 125 -2 25 -9 70 -15 100 -6
30 -18 100 -26 155 -9 55 -23 132 -31 170 -8 39 -14 84 -14 100 0 17 -7 52
-15 79 -8 27 -15 64 -15 83 0 19 -6 62 -14 96 -8 34 -22 105 -31 157 -9 52
-23 127 -30 165 -16 81 -34 201 -45 295 -4 36 -12 92 -18 125 -6 33 -18 105
-26 160 -8 55 -20 134 -26 175 -7 41 -16 111 -20 155 -13 144 -31 288 -45 380
-33 209 -45 446 -45 885 0 518 8 617 76 925 41 183 67 276 125 445 52 152 186
393 259 468 36 36 43 38 58 19z m-348 -46 c0 -3 -25 -58 -56 -121 -82 -169
-97 -205 -145 -355 -17 -55 -38 -115 -45 -133 -8 -18 -14 -41 -14 -52 0 -11
-6 -37 -14 -57 -24 -67 -71 -293 -86 -413 -24 -198 -34 -631 -22 -967 11 -312
18 -412 43 -653 6 -58 13 -123 15 -145 10 -106 53 -414 75 -540 6 -33 15 -87
19 -120 4 -33 12 -80 18 -105 5 -25 17 -90 26 -145 9 -55 21 -125 27 -155 6
-30 14 -86 19 -125 4 -38 13 -99 18 -135 6 -36 18 -112 27 -170 9 -58 23 -128
31 -156 8 -28 14 -61 14 -74 0 -13 6 -49 14 -79 46 -181 68 -476 36 -476 -8 0
-17 13 -21 30 -15 69 -82 279 -134 425 -7 19 -21 62 -30 95 -10 33 -24 78 -30
100 -7 22 -21 67 -30 100 -10 33 -23 78 -30 100 -7 22 -20 67 -30 100 -10 33
-24 77 -31 98 -8 20 -14 46 -14 57 0 11 -6 34 -14 52 -8 18 -22 62 -31 98 -10
36 -23 85 -30 110 -8 25 -21 74 -30 110 -9 36 -22 88 -29 115 -8 28 -21 79
-30 115 -10 36 -23 88 -30 115 -13 48 -22 87 -61 270 -9 44 -23 105 -30 135
-46 187 -63 268 -89 430 -74 462 -85 922 -30 1260 27 171 79 341 157 520 63
147 175 356 224 422 91 120 280 310 327 328 21 7 46 3 46 -9z m1039 -15 c100
-63 302 -289 355 -397 3 -8 22 -41 41 -74 98 -169 166 -330 210 -495 9 -36 23
-87 31 -114 8 -26 14 -57 14 -67 0 -11 6 -45 14 -77 19 -75 36 -310 36 -497 0
-259 -18 -477 -60 -730 -7 -38 -15 -92 -19 -120 -9 -58 -26 -151 -47 -250 -8
-38 -14 -81 -14 -94 0 -13 -6 -47 -14 -75 -8 -28 -22 -82 -31 -121 -19 -82
-41 -169 -60 -240 -7 -27 -21 -79 -30 -115 -9 -36 -23 -85 -31 -110 -8 -25
-14 -54 -14 -65 0 -11 -7 -41 -15 -67 -15 -49 -29 -97 -60 -203 -9 -33 -23
-80 -30 -105 -7 -25 -21 -74 -30 -110 -10 -36 -23 -83 -30 -105 -7 -22 -20
-67 -30 -100 -9 -33 -23 -78 -30 -100 -7 -22 -20 -67 -30 -100 -10 -33 -24
-75 -31 -93 -8 -18 -14 -39 -14 -47 0 -8 -6 -29 -14 -47 -14 -34 -34 -99 -61
-203 -41 -152 -59 -201 -90 -244 -5 -8 -15 -30 -21 -50 l-11 -36 -8 29 c-5 18
-2 57 9 105 9 42 16 90 16 106 0 17 6 62 14 100 25 122 37 188 47 260 5 39 13
88 19 110 5 22 10 59 10 81 0 23 7 75 15 115 34 162 94 490 101 549 3 19 11
76 20 125 33 201 62 389 70 455 2 19 11 80 19 135 7 55 21 154 29 220 8 66 23
183 33 260 15 122 18 221 17 760 -1 575 -3 631 -22 775 -12 85 -26 171 -31
190 -5 19 -17 64 -26 100 -47 184 -92 326 -121 382 -8 14 -14 31 -14 37 0 6
-21 55 -46 109 -26 53 -63 133 -84 177 -21 44 -36 83 -33 87 8 15 44 8 82 -16z
m439 -53 c162 -102 408 -361 482 -508 6 -11 19 -33 29 -50 50 -80 134 -268
167 -375 9 -30 23 -70 30 -88 8 -18 14 -44 14 -57 0 -14 6 -42 14 -62 7 -21
21 -76 30 -123 32 -167 14 -794 -28 -960 -32 -124 -39 -156 -43 -185 -10 -76
-65 -296 -108 -430 -7 -22 -20 -67 -30 -100 -10 -33 -24 -75 -31 -93 -8 -18
-14 -39 -14 -47 0 -25 -85 -271 -108 -312 -7 -12 -12 -34 -12 -48 0 -23 -33
-114 -76 -212 -24 -54 -41 -96 -59 -143 -10 -25 -23 -58 -30 -75 -7 -16 -20
-49 -29 -72 -30 -81 -49 -128 -61 -158 -7 -16 -20 -48 -28 -70 -30 -81 -79
-201 -93 -228 -8 -16 -14 -33 -14 -38 0 -5 -13 -30 -29 -56 -24 -41 -49 -100
-67 -162 -4 -12 -8 -12 -21 2 -15 14 -15 24 -6 64 11 49 25 94 49 151 8 18 14
45 14 61 0 15 6 47 14 72 7 24 21 69 29 99 23 81 48 169 63 220 16 57 40 144
59 212 7 29 21 80 30 113 65 235 98 361 115 430 22 91 42 179 50 220 4 22 12
60 18 85 6 25 19 81 28 125 9 44 22 108 30 142 8 34 14 76 14 92 0 16 6 60 14
98 95 480 104 875 30 1333 -8 52 -20 115 -26 140 -6 25 -14 63 -19 85 -10 48
-60 204 -84 260 -48 112 -94 208 -140 290 -19 33 -39 69 -45 80 -29 53 -84
136 -137 207 -61 80 -53 114 15 71z m-1948 2 c0 -13 -43 -85 -89 -150 -104
-145 -193 -312 -255 -472 -57 -149 -89 -253 -107 -341 -5 -23 -13 -51 -19 -61
-5 -11 -10 -31 -10 -45 0 -15 -7 -52 -15 -84 -35 -140 -45 -255 -45 -537 0
-268 10 -413 41 -610 6 -38 15 -99 19 -135 7 -62 14 -100 45 -255 8 -38 22
-106 30 -150 9 -44 21 -100 27 -125 6 -25 14 -65 18 -90 4 -25 12 -65 19 -90
7 -25 19 -72 28 -105 8 -33 21 -78 29 -100 8 -23 14 -49 14 -60 0 -11 6 -37
14 -60 8 -22 22 -69 31 -105 10 -36 23 -85 30 -110 8 -25 21 -72 31 -105 9
-33 22 -78 29 -100 6 -22 20 -67 29 -100 10 -33 22 -73 27 -90 6 -16 17 -52
25 -80 8 -27 19 -63 24 -80 43 -142 52 -174 60 -205 5 -19 21 -78 35 -130 27
-101 27 -132 -1 -109 -8 7 -26 35 -39 63 -58 125 -85 187 -85 195 0 5 -6 22
-14 38 -14 27 -63 147 -93 228 -15 40 -29 74 -59 143 -9 20 -22 51 -28 67 -7
17 -20 46 -28 65 -18 41 -74 180 -93 230 -18 48 -54 141 -65 165 -4 11 -11 29
-13 40 -3 11 -15 45 -27 75 -19 50 -100 292 -134 400 -30 99 -70 243 -91 335
-9 39 -21 88 -27 110 -6 22 -14 60 -18 85 -4 25 -12 65 -18 90 -13 54 -35 169
-59 310 -24 149 -25 618 0 735 71 335 87 383 204 620 143 293 333 525 547 669
35 23 76 35 76 21z"/>
<path d="M3717 3944 c-11 -19 -17 -114 -27 -439 -6 -187 -15 -358 -21 -380 -5
-22 -14 -62 -19 -90 -8 -44 -20 -85 -60 -220 -5 -16 -27 -84 -49 -149 -23 -66
-41 -130 -41 -143 0 -39 35 -94 105 -167 109 -113 242 -288 324 -427 33 -55
141 -275 141 -287 0 -24 41 -93 52 -90 26 9 31 79 32 448 1 340 -1 391 -16
439 -10 29 -22 59 -26 65 -14 17 -21 68 -15 99 7 36 75 87 114 87 37 0 90 -47
107 -94 14 -38 16 -31 -55 -168 -20 -39 -15 -769 6 -810 8 -16 17 -28 21 -28
14 0 39 37 70 105 49 106 109 226 131 260 10 17 22 37 26 45 5 9 36 57 71 107
64 93 122 161 225 264 86 86 127 138 127 161 0 10 -11 34 -24 51 -34 45 -53
95 -110 277 -50 161 -76 402 -77 720 -1 107 -4 229 -8 270 l-6 75 -435 6
c-239 4 -463 10 -496 14 -34 4 -64 4 -67 -1z"/>
</g>
</svg>
