<?xml version="1.0" standalone="no"?>
<!DOCTYPE svg PUBLIC "-//W3C//DTD SVG 20010904//EN"
 "http://www.w3.org/TR/2001/REC-SVG-20010904/DTD/svg10.dtd">
<svg version="1.0" xmlns="http://www.w3.org/2000/svg"
 width="300.000000pt" height="300.000000pt" viewBox="0 0 300.000000 300.000000"
 preserveAspectRatio="xMidYMid meet">
<metadata>
Created by potrace 1.10, written by Peter Selinger 2001-2011
</metadata>
<g transform="translate(0.000000,300.000000) scale(0.100000,-0.100000)"
fill="#000000" stroke="none">
<path d="M2114 2432 c-7 -4 -110 -102 -230 -218 -234 -226 -221 -210 -310
-402 -1 -1 -15 5 -32 15 -42 24 -62 7 -45 -37 10 -28 9 -32 -25 -58 -38 -29
-160 -98 -337 -192 -245 -130 -352 -213 -409 -318 -94 -177 14 -394 206 -409
83 -7 134 8 205 61 91 66 145 147 282 425 140 282 141 284 173 324 22 26 26
28 51 16 24 -11 30 -10 45 5 16 16 16 18 0 47 -17 29 -17 30 5 39 12 5 59 24
105 43 81 33 85 36 296 245 151 151 215 221 219 241 7 33 -5 82 -28 117 -30
46 -134 80 -171 56z m121 -44 c25 -20 61 -85 52 -94 -2 -2 -18 13 -35 34 -17
22 -45 45 -62 52 -30 12 -33 11 -71 -26 -30 -29 -42 -35 -51 -26 -9 9 -4 20
22 47 28 29 41 35 76 35 27 0 51 -7 69 -22z m-5 -88 l43 -41 -24 -25 -23 -25
-50 50 c-42 43 -48 52 -37 65 21 25 46 19 91 -24z m-102 -46 c78 -72 95 -94
72 -94 -13 0 -170 149 -170 161 0 19 18 6 98 -67z m52 -116 c0 -18 -20 -3 -99
72 -48 46 -80 84 -75 91 6 11 174 -146 174 -163z m-33 -35 c-10 -9 -178 158
-170 170 3 5 44 -29 91 -76 48 -48 83 -90 79 -94z m-98 63 c53 -53 79 -86 72
-91 -14 -8 -183 154 -175 167 10 15 20 8 103 -76z m-103 43 c4 -6 -34 -51 -87
-105 -69 -69 -100 -94 -119 -94 -22 0 -11 14 80 105 58 57 108 104 112 105 4
0 10 -5 14 -11z m74 -104 c53 -54 52 -57 -47 -149 -81 -76 -79 -76 -142 -4
l-32 37 77 80 c42 45 82 81 88 81 7 0 32 -20 56 -45z m-270 -140 c0 -22 4 -25
36 -25 30 0 35 -3 29 -17 -16 -39 -11 -48 24 -45 32 4 33 3 26 -25 -3 -15 -7
-28 -8 -29 -1 0 -35 -13 -75 -28 -40 -16 -74 -27 -76 -25 -1 2 -10 16 -19 31
-10 15 -28 30 -42 34 -14 3 -25 8 -25 11 0 2 16 35 36 74 32 61 39 69 65 69
24 0 29 -4 29 -25z m-145 -225 c38 -38 66 -72 63 -76 -4 -3 -13 -2 -21 3 -41
24 -127 115 -127 134 0 19 18 7 85 -61z m-38 -84 c-8 -20 -27 -21 -27 -1 0 8
-5 15 -12 15 -23 0 -564 -548 -670 -679 l-43 -53 -3 40 c-4 54 32 130 100 208
67 78 85 93 298 253 212 159 310 242 305 258 -7 23 10 23 33 -1 15 -15 22 -31
19 -40z m-104 4 c-17 -16 -55 -46 -85 -67 -362 -258 -509 -386 -556 -487 -26
-54 -46 -141 -38 -161 3 -8 1 -15 -4 -15 -16 0 -23 48 -18 115 12 146 123 266
393 426 90 53 292 188 306 205 6 8 17 14 23 14 6 0 -3 -13 -21 -30z m-123 -48
c-41 -27 -115 -73 -165 -102 -227 -135 -332 -218 -383 -303 -36 -59 -65 -152
-56 -179 2 -9 0 -19 -6 -23 -6 -4 -10 19 -10 67 0 92 30 159 105 233 75 76 99
92 375 243 85 47 164 91 175 98 11 8 24 14 30 14 5 0 -24 -22 -65 -48z m190
34 c0 -2 -14 -19 -30 -37 -34 -39 -145 -185 -257 -339 -102 -141 -173 -221
-245 -277 -53 -40 -139 -83 -169 -83 -16 0 201 236 461 503 213 218 240 244
240 233z m-4 -43 c-2 -5 -24 -38 -48 -74 -23 -36 -74 -121 -113 -188 -205
-360 -292 -446 -458 -457 l-72 -4 45 16 c66 25 144 77 202 137 66 67 200 241
307 398 76 111 128 179 138 179 3 0 2 -3 -1 -7z m-96 -225 c-140 -293 -199
-390 -275 -456 -70 -62 -166 -97 -234 -86 -51 8 -53 24 -3 24 57 0 103 16 170
59 79 52 143 138 267 361 133 239 145 260 150 260 2 0 -32 -73 -75 -162z"/>
</g>
</svg>
